HIERARCHY
ROOT SpineBase
{
  OFFSET 0.000000 0.000000 0.000000
  CHANNELS 6 Xposition Yposition Zposition Zrotation Xrotation Yrotation
  JOINT SpineMid
  {
    OFFSET 0.000000 29.382146 0.000000
    CHANNELS 3 Zrotation Xrotation Yrotation
    JOINT SpineShoulder
    {
      OFFSET 0.126404 21.807649 -0.744252
      CHANNELS 3 Zrotation Xrotation Yrotation
      JOINT Neck
      {
        OFFSET 0.084684 7.229233 -0.586471
        CHANNELS 3 Zrotation Xrotation Yrotation
        JOINT Head
        {
          OFFSET 4.351585 13.810999 1.378519
          CHANNELS 3 Zrotation Xrotation Yrotation
          End Site
          {
            OFFSET 0 0 0
          }
        }
      }
      JOINT ShoulderLeft
      {
        OFFSET -9.524375 -2.542746 -12.573891
        CHANNELS 3 Zrotation Xrotation Yrotation
        JOINT ElbowLeft
        {
          OFFSET -4.614585 -24.051254 -5.454861
          CHANNELS 3 Zrotation Xrotation Yrotation
          JOINT WristLeft
          {
            OFFSET 4.441591 -22.608779 -2.855834
            CHANNELS 3 Zrotation Xrotation Yrotation
            JOINT HandLeft
            {
              OFFSET 0.604704 -4.735526 0.144996
              CHANNELS 3 Zrotation Xrotation Yrotation
              JOINT HandTipLeft
              {
                OFFSET 1.273768 -6.661469 1.210294
                CHANNELS 3 Zrotation Xrotation Yrotation
                End Site
                {
                  OFFSET 0 0 0
                }
              }
              JOINT ThumbLeft
              {
                OFFSET 3.172379 2.048735 1.587803
                CHANNELS 3 Zrotation Xrotation Yrotation
                End Site
                {
                  OFFSET 0 0 0
                }
              }
            }
          }
        }
      }
      JOINT ShoulderRight
      {
        OFFSET 11.581147 -4.789389 9.498768
        CHANNELS 3 Zrotation Xrotation Yrotation
        JOINT ElbowRight
        {
          OFFSET 1.132481 -27.174436 4.199152
          CHANNELS 3 Zrotation Xrotation Yrotation
          JOINT WristRight
          {
            OFFSET 1.548511 -24.532656 -6.104499
            CHANNELS 3 Zrotation Xrotation Yrotation
            JOINT HandRight
            {
              OFFSET -1.465559 -3.141335 0.845000
              CHANNELS 3 Zrotation Xrotation Yrotation
              JOINT HandTipRight
              {
                OFFSET -1.016400 -4.021746 -0.727191
                CHANNELS 3 Zrotation Xrotation Yrotation
                End Site
                {
                  OFFSET 0 0 0
                }
              }
              JOINT ThumbRight
              {
                OFFSET -2.402780 2.516354 -4.033600
                CHANNELS 3 Zrotation Xrotation Yrotation
                End Site
                {
                  OFFSET 0 0 0
                }
              }
            }
          }
        }
      }
    }
  }
  JOINT HipLeft
  {
    OFFSET -4.421976 2.048203 -7.741569
    CHANNELS 3 Zrotation Xrotation Yrotation
    JOINT KneeLeft
    {
      OFFSET -8.114789 -26.426887 -0.660090
      CHANNELS 3 Zrotation Xrotation Yrotation
      JOINT AnkleLeft
      {
        OFFSET -6.239418 -35.118053 6.257935
        CHANNELS 3 Zrotation Xrotation Yrotation
        JOINT FootLeft
        {
          OFFSET 8.763885 -3.096042 -12.295715
          CHANNELS 3 Zrotation Xrotation Yrotation
          End Site
          {
            OFFSET 0 0 0
          }
        }
      }
    }
  }
  JOINT HipRight
  {
    OFFSET 5.106124 0.026712 0.881757
    CHANNELS 3 Zrotation Xrotation Yrotation
    JOINT KneeRight
    {
      OFFSET -3.261124 -27.199341 5.776285
      CHANNELS 3 Zrotation Xrotation Yrotation
      JOINT AnkleRight
      {
        OFFSET -11.770983 -32.233638 1.410363
        CHANNELS 3 Zrotation Xrotation Yrotation
        JOINT FootRight
        {
          OFFSET 1.648204 -8.391342 -5.226759
          CHANNELS 3 Zrotation Xrotation Yrotation
          End Site
          {
            OFFSET 0 0 0
          }
        }
      }
    }
  }
}
MOTION
Frames: 9
Frame Time: 0.033333
-32.312263 69.926858 322.460629 -0.000000 0.000000 -42.146402 -0.000000 0.000000 42.146402 -0.000000 0.000000 0.000000 -0.000000 0.000000 0.000000 0.000000 0.000000 0.000000 -0.000000 0.000000 0.000000 -0.000000 0.000000 0.000000 -0.000000 0.000000 0.000000 -0.000000 0.000000 0.000000 0.000000 0.000000 0.000000 0.000000 0.000000 0.000000 -0.000000 0.000000 0.000000 -0.000000 0.000000 0.000000 -0.000000 0.000000 0.000000 -0.000000 0.000000 0.000000 0.000000 0.000000 0.000000 0.000000 0.000000 0.000000 -0.000000 0.000000 42.146402 -0.000000 0.000000 0.000000 -0.000000 0.000000 0.000000 0.000000 0.000000 0.000000 -0.000000 0.000000 42.146402 -0.000000 0.000000 0.000000 -0.000000 0.000000 0.000000 0.000000 0.000000 0.000000
-32.422300 69.883835 322.251810 -0.099093 0.067059 -42.260380 0.118435 0.017010 42.260420 -0.000000 0.000000 0.000000 -0.000000 0.000000 0.000000 0.000000 0.000000 0.000000 -0.000000 0.000000 0.000000 -0.000000 0.000000 0.000000 -0.000000 0.000000 0.000000 -1.596640 -0.415044 -0.376005 0.000000 0.000000 0.000000 0.000000 0.000000 0.000000 -0.000000 0.000000 0.000000 -0.000000 0.000000 0.000000 1.222850 0.614057 0.036146 -2.894620 -1.829794 0.523941 0.000000 0.000000 0.000000 0.000000 0.000000 0.000000 0.118435 0.017010 42.260420 -0.000000 0.000000 0.000000 -4.850611 -7.488567 -3.659116 0.000000 0.000000 0.000000 -0.617768 -0.437513 42.058183 0.851075 -0.155721 0.200693 2.937939 -3.487257 -2.459965 0.000000 0.000000 0.000000
-32.532763 69.852472 322.044741 -0.190831 0.130894 -42.360072 0.229205 0.031859 42.360226 -0.000000 0.000000 0.000000 -0.000000 0.000000 0.000000 0.000000 0.000000 0.000000 -0.000000 0.000000 0.000000 -0.000000 0.000000 0.000000 1.108945 0.079184 0.043248 -4.024948 -0.814651 -0.741088 0.000000 0.000000 0.000000 0.000000 0.000000 0.000000 -0.135098 -0.886571 -0.058802 0.134204 0.886707 0.056718 2.519796 1.832803 -0.220757 -5.275129 -4.110217 1.066014 0.000000 0.000000 0.000000 0.000000 0.000000 0.000000 0.229205 0.031859 42.360226 -0.000000 0.000000 0.000000 -12.032104 -16.612930 -9.498933 0.000000 0.000000 0.000000 -0.948549 -0.786088 42.028302 1.422428 -0.181010 0.326419 5.307256 -6.532406 -4.403839 0.000000 0.000000 0.000000
-32.643650 69.832770 321.839422 -0.275303 0.191563 -42.445404 0.332434 0.044441 42.445736 -0.000000 0.000000 0.000000 -0.000000 0.000000 0.000000 0.000000 0.000000 0.000000 -0.000000 0.000000 0.000000 -0.000000 0.000000 0.000000 1.533770 0.194398 0.069072 -5.512520 -1.168256 -1.036832 0.000000 0.000000 0.000000 0.000000 0.000000 0.000000 -0.219851 -0.981311 -0.076657 0.218570 0.981597 0.072902 3.891705 3.653953 -0.801806 -7.113490 -6.845883 1.631586 0.000000 0.000000 0.000000 0.000000 0.000000 0.000000 0.332434 0.044441 42.445736 -0.000000 0.000000 0.000000 -22.043008 -26.005910 -18.162470 0.000000 0.000000 0.000000 -1.018539 -1.058523 42.052878 2.396283 0.615238 0.152966 6.440875 -9.582860 -5.496806 0.000000 0.000000 0.000000
-32.754964 69.824729 321.635854 -0.352582 0.249117 -42.516324 0.428235 0.054657 42.516886 -0.000000 0.000000 0.000000 -0.000000 0.000000 0.000000 0.000000 0.000000 0.000000 -0.000000 0.000000 0.000000 -0.000000 0.000000 0.000000 1.866344 0.360086 0.097074 -6.668795 -1.497630 -1.286120 0.000000 0.000000 0.000000 0.000000 0.000000 0.000000 -0.316376 -0.841434 -0.086191 0.315144 0.841896 0.081552 5.345471 6.052506 -1.732469 -8.381883 -10.017808 2.255665 0.000000 0.000000 0.000000 0.000000 0.000000 0.000000 1.261124 -0.546742 42.824477 -0.202127 1.007232 -0.302238 -33.950237 -33.382487 -28.916906 0.000000 0.000000 0.000000 -0.841850 -1.263160 42.129900 2.608533 0.929701 0.106147 7.421496 -11.246488 -6.304951 0.000000 0.000000 0.000000
-32.866702 69.828349 321.434035 -0.422731 0.303603 -42.572798 0.516700 0.062415 42.573636 -0.000000 0.000000 0.000000 -0.000000 0.000000 0.000000 0.000000 0.000000 0.000000 -0.000000 0.000000 0.000000 -0.266849 -0.879709 -0.141369 2.367687 1.460229 0.231955 -7.504541 -1.808217 -1.489977 0.000000 0.000000 0.000000 0.000000 0.000000 0.000000 -0.000000 0.000000 0.000000 -0.232477 -1.134429 -0.016104 7.145828 10.101934 -3.155772 -9.044579 -13.574146 3.002440 0.000000 0.000000 0.000000 0.000000 0.000000 0.000000 1.626217 -0.614919 42.954156 -0.350635 1.251735 -0.371340 -45.005509 -37.564180 -39.153081 0.000000 0.000000 0.000000 -0.422077 -1.404702 42.259225 2.538869 1.286521 0.018280 7.786037 -11.945448 -6.634301 0.000000 0.000000 0.000000
-32.953384 69.866962 321.245185 -0.442518 0.332496 -42.695257 0.550700 0.055702 42.696273 -0.000000 0.000000 0.000000 -0.000000 0.000000 0.000000 0.000000 0.000000 0.000000 -0.000000 0.000000 0.000000 -0.237169 -0.930766 -0.155047 2.239033 1.359427 0.226365 -8.361637 -1.894358 -1.703873 0.000000 0.000000 0.000000 0.000000 0.000000 0.000000 -0.000000 0.000000 0.000000 -0.061065 -1.917595 -0.107328 8.544921 14.881906 -5.274521 -6.439476 -18.090745 4.564431 0.000000 0.000000 0.000000 0.000000 0.000000 0.000000 1.892593 -0.760167 43.157951 -0.421030 1.512942 -0.447869 -54.182802 -39.734083 -47.259222 0.000000 0.000000 0.000000 0.349441 -1.448550 42.562377 2.009969 1.693417 -0.124700 7.672888 -11.294451 -6.537078 0.000000 0.000000 0.000000
-33.066394 69.898883 321.005281 -0.494796 0.446121 -42.616074 0.666181 0.006725 42.617961 -0.000000 0.000000 0.000000 -0.000000 0.000000 0.000000 0.000000 0.000000 0.000000 -0.000000 0.000000 0.000000 -0.260328 -0.987709 -0.163656 2.517706 1.302034 0.222325 -7.807533 -1.313462 -1.405719 0.000000 0.000000 0.000000 0.000000 0.000000 0.000000 -0.755225 2.005217 -0.019971 0.946037 -5.929216 -0.236968 10.391915 21.098402 -7.897421 -6.898503 -21.941913 5.842549 0.000000 0.000000 0.000000 0.000000 0.000000 0.000000 2.358951 -0.922291 43.179140 -0.599130 1.835609 -0.538054 -55.459103 -39.500889 -49.512359 0.000000 0.000000 0.000000 2.058309 -1.571230 42.878848 0.707958 2.778278 -0.490254 6.808598 -9.803977 -5.742477 0.000000 0.000000 0.000000
-33.175137 69.924666 320.781524 -0.542724 0.560859 -42.469868 0.779019 -0.047240 42.472845 -0.000000 0.000000 0.000000 0.789753 -0.574862 0.106547 0.000000 0.000000 0.000000 0.117866 0.813707 -0.183434 -0.386895 -1.885244 -0.000460 2.630830 1.821037 0.280634 -8.194125 -1.339941 -1.477909 0.000000 0.000000 0.000000 0.000000 0.000000 0.000000 -0.967513 3.115786 0.006716 1.513359 -8.660543 -0.387406 11.947644 26.897002 -10.844913 -5.616798 -27.090783 8.115676 0.000000 0.000000 0.000000 0.000000 0.000000 0.000000 2.844158 -0.896242 43.088482 -0.833844 1.229153 -0.424472 -46.781967 -36.906828 -42.034943 0.000000 0.000000 0.000000 3.727308 -1.578678 43.128161 -1.107124 3.132243 -0.583201 4.501791 -6.118435 -3.865084 0.000000 0.000000 0.000000
